HIERARCHY
ROOT hip
{
  OFFSET 0 0 0
  CHANNELS 6 Xposition Yposition Zposition Zrotation Yrotation Xrotation
  JOINT abdomen
  {
    OFFSET 0 20.6881 -0.73152
    CHANNELS 3 Zrotation Xrotation Yrotation
    JOINT chest
    {
      OFFSET 0 11.7043 -0.48768
      CHANNELS 3 Zrotation Xrotation Yrotation
      JOINT neck
      {
        OFFSET 0 22.1894 -2.19456
        CHANNELS 3 Zrotation Xrotation Yrotation
        JOINT head
        {
          OFFSET -0.24384 7.07133 1.2192
          CHANNELS 3 Zrotation Xrotation Yrotation
          JOINT leftEye
          {
            OFFSET 4.14528 8.04674 8.04672
            CHANNELS 3 Zrotation Xrotation Yrotation
            End Site
            {
              OFFSET 1 0 0
            }
          }
          JOINT rightEye
          {
            OFFSET -3.6576 8.04674 8.04672
            CHANNELS 3 Zrotation Xrotation Yrotation
            End Site
            {
              OFFSET 1 0 0
            }
          }
        }
      }
      JOINT rCollar
      {
        OFFSET -2.68224 19.2634 -4.8768
        CHANNELS 3 Zrotation Xrotation Yrotation
        JOINT rShldr
        {
          OFFSET -8.77824 -1.95073 1.46304
          CHANNELS 3 Zrotation Xrotation Yrotation
          JOINT rForeArm
          {
            OFFSET -28.1742 -1.7115 0.48768
            CHANNELS 3 Zrotation Xrotation Yrotation
            JOINT rHand
            {
              OFFSET -22.5879 0.773209 7.07136
              CHANNELS 3 Zrotation Xrotation Yrotation
              JOINT rThumb1
              {
                OFFSET -1.2192 -0.487915 3.41376
                CHANNELS 3 Zrotation Xrotation Yrotation
                JOINT rThumb2
                {
                  OFFSET -3.37035 -0.52449 3.41376
                  CHANNELS 3 Zrotation Xrotation Yrotation
                  End Site
                  {
                    OFFSET -1.78271 -1.18214 1.43049
                  }
                }
              }
              JOINT rIndex1
              {
                OFFSET -7.75947 0.938293 5.60832
                CHANNELS 3 Zrotation Xrotation Yrotation
                JOINT rIndex2
                {
                  OFFSET -2.54057 -0.884171 1.56538
                  CHANNELS 3 Zrotation Xrotation Yrotation
                  End Site
                  {
                    OFFSET -1.62519 -0.234802 1.16502
                  }
                }
              }
              JOINT rMid1
              {
                OFFSET -8.24714 1.18213 3.41376
                CHANNELS 3 Zrotation Xrotation Yrotation
                JOINT rMid2
                {
                  OFFSET -3.10165 -0.590103 1.0647
                  CHANNELS 3 Zrotation Xrotation Yrotation
                  End Site
                  {
                    OFFSET -2.48547 -0.328903 0.83742
                  }
                }
              }
              JOINT rRing1
              {
                OFFSET -8.82822 0.546677 1.51678
                CHANNELS 3 Zrotation Xrotation Yrotation
                JOINT rRing2
                {
                  OFFSET -2.60934 -0.819778 -0.0198488
                  CHANNELS 3 Zrotation Xrotation Yrotation
                  End Site
                  {
                    OFFSET -2.33842 -0.294052 0.168128
                  }
                }
              }
              JOINT rPinky1
              {
                OFFSET -8.27202 -0.0477905 -0.4584
                CHANNELS 3 Zrotation Xrotation Yrotation
                JOINT rPinky2
                {
                  OFFSET -1.82734 -0.647385 -0.700984
                  CHANNELS 3 Zrotation Xrotation Yrotation
                  End Site
                  {
                    OFFSET -1.69225 -0.51767 -0.607171
                  }
                }
              }
            }
          }
        }
      }
      JOINT lCollar
      {
        OFFSET 2.68224 19.2634 -4.8768
        CHANNELS 3 Zrotation Xrotation Yrotation
        JOINT lShldr
        {
          OFFSET 8.77824 -1.95073 1.46304
          CHANNELS 3 Zrotation Xrotation Yrotation
          JOINT lForeArm
          {
            OFFSET 28.1742 -1.7115 0.48768
            CHANNELS 3 Zrotation Xrotation Yrotation
            JOINT lHand
            {
              OFFSET 22.5879 0.773209 7.07136
              CHANNELS 3 Zrotation Xrotation Yrotation
              JOINT lThumb1
              {
                OFFSET 1.2192 -0.487915 3.41376
                CHANNELS 3 Zrotation Xrotation Yrotation
                JOINT lThumb2
                {
                  OFFSET 3.37035 -0.52449 3.41376
                  CHANNELS 3 Zrotation Xrotation Yrotation
                  End Site
                  {
                    OFFSET 1.78271 -1.18214 1.43049
                  }
                }
              }
              JOINT lIndex1
              {
                OFFSET 7.75947 0.938293 5.60832
                CHANNELS 3 Zrotation Xrotation Yrotation
                JOINT lIndex2
                {
                  OFFSET 2.54057 -0.884171 1.56538
                  CHANNELS 3 Zrotation Xrotation Yrotation
                  End Site
                  {
                    OFFSET 1.62519 -0.234802 1.16502
                  }
                }
              }
              JOINT lMid1
              {
                OFFSET 8.24714 1.18213 3.41376
                CHANNELS 3 Zrotation Xrotation Yrotation
                JOINT lMid2
                {
                  OFFSET 3.10165 -0.590103 1.0647
                  CHANNELS 3 Zrotation Xrotation Yrotation
                  End Site
                  {
                    OFFSET 2.48547 -0.328903 0.83742
                  }
                }
              }
              JOINT lRing1
              {
                OFFSET 8.82822 0.546677 1.51678
                CHANNELS 3 Zrotation Xrotation Yrotation
                JOINT lRing2
                {
                  OFFSET 2.60934 -0.819778 -0.0198488
                  CHANNELS 3 Zrotation Xrotation Yrotation
                  End Site
                  {
                    OFFSET 2.33842 -0.294052 0.168128
                  }
                }
              }
              JOINT lPinky1
              {
                OFFSET 8.27202 -0.0477905 -0.4584
                CHANNELS 3 Zrotation Xrotation Yrotation
                JOINT lPinky2
                {
                  OFFSET 1.82734 -0.647385 -0.700984
                  CHANNELS 3 Zrotation Xrotation Yrotation
                  End Site
                  {
                    OFFSET 1.69225 -0.51767 -0.607171
                  }
                }
              }
            }
          }
        }
      }
    }
  }
  JOINT rButtock
  {
    OFFSET -8.77824 4.35084 1.2192
    CHANNELS 3 Zrotation Xrotation Yrotation
    JOINT rThigh
    {
      OFFSET 0 -1.70687 -2.19456
      CHANNELS 3 Zrotation Xrotation Yrotation
      JOINT rShin
      {
        OFFSET 0 -36.8199 0.73152
        CHANNELS 3 Zrotation Xrotation Yrotation
        JOINT rFoot
        {
          OFFSET 0.73152 -45.1104 -5.12064
          CHANNELS 3 Zrotation Xrotation Yrotation
          End Site
          {
            OFFSET -1.1221 -3.69964 12.103
          }
        }
      }
    }
  }
  JOINT lButtock
  {
    OFFSET 8.77824 4.35084 1.2192
    CHANNELS 3 Zrotation Xrotation Yrotation
    JOINT lThigh
    {
      OFFSET 0 -1.70687 -2.19456
      CHANNELS 3 Zrotation Xrotation Yrotation
      JOINT lShin
      {
        OFFSET 0 -36.8199 0.73152
        CHANNELS 3 Zrotation Xrotation Yrotation
        JOINT lFoot
        {
          OFFSET -0.73152 -45.1104 -5.12064
          CHANNELS 3 Zrotation Xrotation Yrotation
          End Site
          {
            OFFSET 1.1221 -3.69964 12.103
          }
        }
      }
    }
  }
}
MOTION
Frames:	7
Frame Time:	0.00833333
33.0303 85.5069 -125.314 0.0 0.0 0.0 2.23597 -0.000460842 0.0604537 0.615912 0.00897182 0.106611 6.63761e-14 -1.59028e-15 -1.98785e-16 2.01344e-13 -6.36111e-15 -4.48819e-16 -0.0 0.0 0.0 -0.0 0.0 0.0 3.35937e-14 -1.26182e-16 1.49089e-16 7.063e-13 -2.02512e-15 1.39149e-15 1.2127e-11 -3.70415e-12 -1.74931e-13 1.38604e-10 3.16147e-12 -1.01778e-13 3.26976e-10 -1.18861e-12 -6.10667e-13 5.64667e-10 -2.05782e-12 -1.0631e-12 3.26982e-10 -1.18396e-12 -6.20208e-13 7.73091 5.47488 0.417314 3.26977e-10 -1.18754e-12 -6.04305e-13 2.90554 0.965183 0.102902 3.26984e-10 -1.18794e-12 -6.05101e-13 10.2786 0.731801 0.0259123 3.26975e-10 -1.19112e-12 -5.94764e-13 2.22167 -0.733487 -0.20892 3.35977e-14 -1.21134e-16 -2.48481e-16 7.00315e-13 -2.42269e-15 -1.98785e-16 1.20943e-11 3.53956e-12 -1.08139e-13 1.38599e-10 -4.09484e-12 -1.46306e-13 3.26903e-10 -1.20849e-12 -6.07486e-13 5.64556e-10 -2.0928e-12 -1.05197e-12 3.26898e-10 -1.20662e-12 -5.85222e-13 -7.73091 5.47488 -0.417314 3.26904e-10 -1.20891e-12 -6.04305e-13 -2.90554 0.965183 -0.102902 3.26891e-10 -1.20801e-12 -6.0351e-13 -10.2786 0.731801 -0.0259123 3.26909e-10 -1.20623e-12 -6.10667e-13 -2.22167 -0.733487 0.20892 -2.03217e-16 0.0 -3.88251e-19 2.20921 -7.80171 -0.224077 0.00523494 8.55971 0.135996 -0.546323 -0.766594 0.0459677 2.03217e-16 0.0 3.88251e-19 1.18753 -1.92859 -0.00260117 0.00906553 -2.07858 0.0747557 0.510103 3.99848 -0.140032
38.5645 84.9812 -131.15 -2.8262 78.4611 1.1813 2.04001 -0.828397 -3.92561 2.10573 1.54728 -1.09597 -1.89946 7.40177 -6.56407 7.12603 -11.1831 -11.5434 -0.0 0.0 0.0 -0.0 0.0 0.0 5.40164e-14 -9.26211e-15 -7.8808e-14 19.0996 10.3075 1.5448 -3.99834 -1.7748 6.28979 2.8395e-05 -0.11881 -0.0166975 3.03459e-10 3.61381e-10 -3.63265e-10 5.24535e-10 6.25779e-10 -6.28118e-10 3.03467e-10 3.61384e-10 -3.63272e-10 7.73091 5.47488 0.417314 3.0346e-10 3.61381e-10 -3.63259e-10 2.90554 0.965183 0.102902 3.03468e-10 3.61381e-10 -3.63261e-10 10.2786 0.731801 0.0259123 3.03459e-10 3.61379e-10 -3.63252e-10 2.22167 -0.733487 -0.20892 5.39777e-14 -9.25573e-15 -7.91501e-14 -21.5495 5.61169 1.92512 4.13767 -1.86384 -6.48028 -0.0202958 -3.1616 0.441895 -4.7127e-10 3.83119e-11 -3.31569e-10 -8.1236e-10 6.32125e-11 -5.79412e-10 -4.71275e-10 3.83113e-11 -3.31551e-10 -7.73091 5.47488 -0.417314 -4.71271e-10 3.83088e-11 -3.31568e-10 -2.90554 0.965183 -0.102902 -4.7128e-10 3.83095e-11 -3.31567e-10 -10.2786 0.731801 -0.0259123 -4.71263e-10 3.83113e-11 -3.31575e-10 -2.22167 -0.733487 0.20892 -2.03217e-16 0.0 -3.88251e-19 -1.15053 -7.5692 3.36526 0.00141799 8.30104 0.08395 -1.17231 -5.86999 -8.76496 2.03217e-16 0.0 3.88251e-19 4.78028 0.363669 -1.437 0.00766243 -2.09678 0.0629297 0.484707 -4.09803 0.299553
38.5585 84.9644 -131.131 -4.008 78.6345 0.2683 1.68924 -1.69039 -8.13243 3.75509 3.176 -2.36756 -2.02128 14.8978 -13.8649 9.59052 -21.4624 -25.1363 -0.0 0.0 0.0 -0.0 0.0 0.0 7.61511e-14 -1.73526e-14 -1.64277e-13 38.6389 21.1772 3.38455 -7.80091 -3.57744 12.9531 -1.68993e-05 -0.243018 -0.0341539 2.89915e-10 7.5722e-10 -7.56205e-10 5.0168e-10 1.31125e-09 -1.30755e-09 2.89924e-10 7.57221e-10 -7.56211e-10 7.73091 5.47488 0.417314 2.89916e-10 7.57219e-10 -7.562e-10 2.90554 0.965183 0.102902 2.89924e-10 7.57219e-10 -7.56203e-10 10.2786 0.731801 0.0259123 2.89914e-10 7.57218e-10 -7.56197e-10 2.22167 -0.733487 -0.20892 7.6067e-14 -1.73447e-14 -1.6456e-13 -44.7554 11.5216 4.02179 8.04736 -3.74817 -13.3387 0.0115665 -6.49602 0.912524 -1.32848e-09 7.93551e-11 -6.90327e-10 -2.2911e-09 1.30912e-10 -1.20629e-09 -1.32848e-09 7.93518e-11 -6.90313e-10 -7.73091 5.47488 -0.417314 -1.32848e-09 7.9349e-11 -6.90329e-10 -2.90554 0.965183 -0.102902 -1.32849e-09 7.93494e-11 -6.90327e-10 -10.2786 0.731801 -0.0259123 -1.32847e-09 7.93513e-11 -6.90335e-10 -2.22167 -0.733487 0.20892 -2.03217e-16 0.0 -3.88251e-19 -4.75161 -7.29659 7.15348 -0.003143 8.0298 0.0288969 -3.53592 -10.8353 -18.3216 2.03217e-16 0.0 3.88251e-19 8.6863 2.78438 -2.95908 0.00617557 -2.11633 0.0504805 0.594868 -12.6618 0.779138
38.5848 84.9624 -131.15 -3.4741 78.6168 0.789 1.30501 -2.4366 -11.9074 5.27948 4.6161 -3.51135 -0.421024 21.0016 -20.98 7.37583 -27.8055 -39.1682 -0.0 0.0 0.0 -0.0 0.0 0.0 9.48618e-14 -2.7534e-14 -2.36722e-13 55.4006 30.825 5.31166 -10.8457 -5.06826 18.9371 -0.000122564 -0.356429 -0.0500934 2.56426e-10 1.08652e-09 -1.08857e-09 4.4427e-10 1.88145e-09 -1.88223e-09 2.56437e-10 1.08652e-09 -1.08858e-09 7.73091 5.47488 0.417314 2.56428e-10 1.08652e-09 -1.08857e-09 2.90554 0.965183 0.102902 2.56435e-10 1.08652e-09 -1.08857e-09 10.2786 0.731801 0.0259123 2.56426e-10 1.08652e-09 -1.08857e-09 2.22167 -0.733487 -0.20892 9.47376e-14 -2.75249e-14 -2.36953e-13 -65.8202 16.7573 6.00349 11.1706 -5.30598 -19.5175 0.087127 -9.48252 1.34201 -2.06762e-09 1.17353e-10 -9.93492e-10 -3.56619e-09 1.93823e-10 -1.73613e-09 -2.06762e-09 1.17347e-10 -9.93483e-10 -7.73091 5.47488 -0.417314 -2.06762e-09 1.17344e-10 -9.93497e-10 -2.90554 0.965183 -0.102902 -2.06762e-09 1.17344e-10 -9.93495e-10 -10.2786 0.731801 -0.0259123 -2.06761e-09 1.17346e-10 -9.93503e-10 -2.22167 -0.733487 0.20892 -2.03217e-16 0.0 -3.88251e-19 -7.95993 -7.02372 10.5316 -0.00763885 7.78367 -0.0199346 -7.07388 -14.565 -27.1898 2.03217e-16 0.0 3.88251e-19 12.3107 4.93453 -4.32176 0.00483368 -2.13318 0.0392768 0.823899 -20.2868 1.25351
38.6272 84.9771 -131.157 -2.8012 78.4637 1.3077 1.07685 -2.93826 -14.5937 6.35397 5.59211 -4.32578 1.68052 24.7717 -26.3942 3.81518 -29.908 -49.7571 -0.0 0.0 0.0 -0.0 0.0 0.0 1.05012e-13 -4.29425e-14 -2.76609e-13 66.6902 37.5181 6.79321 -12.7946 -6.02178 23.1588 -0.000240525 -0.442848 -0.0622394 1.73079e-10 1.24947e-09 -1.26951e-09 3.00477e-10 2.16346e-09 -2.19502e-09 1.7309e-10 1.24947e-09 -1.26951e-09 7.73091 5.47488 0.417314 1.73081e-10 1.24947e-09 -1.26951e-09 2.90554 0.965183 0.102902 1.73088e-10 1.24947e-09 -1.26951e-09 10.2786 0.731801 0.0259123 1.73079e-10 1.24947e-09 -1.26951e-09 2.22167 -0.733487 -0.20892 1.04861e-13 -4.29334e-14 -2.76808e-13 -80.6917 20.3812 7.48128 13.1837 -6.31426 -23.9257 0.167973 -11.6014 1.65335 -2.51158e-09 1.47737e-10 -1.15768e-09 -4.33218e-09 2.44763e-10 -2.02336e-09 -2.51159e-09 1.4773e-10 -1.15767e-09 -7.73091 5.47488 -0.417314 -2.51159e-09 1.47727e-10 -1.15768e-09 -2.90554 0.965183 -0.102902 -2.51159e-09 1.47727e-10 -1.15768e-09 -10.2786 0.731801 -0.0259123 -2.51157e-09 1.47729e-10 -1.15769e-09 -2.22167 -0.733487 0.20892 -2.03217e-16 0.0 -3.88251e-19 -10.1233 -6.80457 12.8934 -0.0109832 7.60031 -0.0533532 -10.2992 -16.6321 -33.5877 2.03217e-16 0.0 3.88251e-19 14.9862 6.42228 -5.26775 0.00387058 -2.14332 0.0311877 1.07201 -25.5694 1.63704
38.6755 84.9807 -131.238 -0.3518 78.2438 3.5761 1.20402 -3.12729 -15.7434 6.71863 5.92226 -4.66982 2.7351 26.1191 -28.6424 2.10704 -30.064 -53.9536 -0.0 0.0 0.0 -0.0 0.0 0.0 1.07205e-13 -7.46701e-14 -2.76353e-13 71.245 40.1621 7.01933 -13.5606 -6.40155 24.9063 -0.00031126 -0.484252 -0.0680589 -2.80448e-12 1.18929e-09 -1.28693e-09 -3.57905e-12 2.05879e-09 -2.22496e-09 -2.79494e-12 1.18929e-09 -1.28693e-09 7.73091 5.47488 0.417314 -2.8039e-12 1.18929e-09 -1.28693e-09 2.90554 0.965183 0.102902 -2.79816e-12 1.18929e-09 -1.28693e-09 10.2786 0.731801 0.0259123 -2.80528e-12 1.18929e-09 -1.28692e-09 2.22167 -0.733487 -0.20892 1.07046e-13 -7.46629e-14 -2.76548e-13 -86.4706 21.8461 8.09472 14.0069 -6.74102 -25.8221 0.209457 -12.5323 1.7921 -2.58635e-09 1.70252e-10 -1.14237e-09 -4.46121e-09 2.8351e-10 -1.9975e-09 -2.58635e-09 1.70246e-10 -1.14236e-09 -7.73091 5.47488 -0.417314 -2.58635e-09 1.70244e-10 -1.14238e-09 -2.90554 0.965183 -0.102902 -2.58636e-09 1.70244e-10 -1.14237e-09 -10.2786 0.731801 -0.0259123 -2.58634e-09 1.70246e-10 -1.14238e-09 -2.22167 -0.733487 0.20892 -2.03217e-16 0.0 -3.88251e-19 -10.7619 -6.67493 13.8328 -0.0122598 7.50155 -0.0649368 -11.7777 -17.358 -36.1496 2.03217e-16 0.0 3.88251e-19 16.2586 6.99258 -5.60487 0.00342067 -2.14365 0.0272255 1.21087 -27.5569 1.84345
38.6922 84.9772 -131.28 0.7926 78.1612 4.659 1.60785 -3.10254 -15.7941 6.56298 5.7927 -4.67605 2.62416 25.993 -28.4197 2.23817 -29.9249 -53.5362 -0.0 0.0 0.0 -0.0 0.0 0.0 1.03522e-13 -1.17625e-13 -2.47164e-13 71.2128 39.9301 6.17286 -13.5568 -6.42012 24.8751 -0.000330196 -0.493846 -0.0694076 -2.43704e-10 9.69265e-10 -1.18524e-09 -4.20235e-10 1.67713e-09 -2.04887e-09 -2.43696e-10 9.69261e-10 -1.18524e-09 7.73091 5.47488 0.417314 -2.43704e-10 9.69263e-10 -1.18524e-09 2.90554 0.965183 0.102902 -2.437e-10 9.69263e-10 -1.18524e-09 10.2786 0.731801 0.0259123 -2.43706e-10 9.69265e-10 -1.18523e-09 2.22167 -0.733487 -0.20892 1.03367e-13 -1.17622e-13 -2.47375e-13 -85.6528 21.7837 8.0418 14.0636 -6.80867 -25.9124 0.210857 -12.6139 1.80398 -2.3953e-09 1.87015e-10 -9.98127e-10 -4.13166e-09 3.1333e-10 -1.74674e-09 -2.3953e-09 1.8701e-10 -9.98125e-10 -7.73091 5.47488 -0.417314 -2.3953e-09 1.87008e-10 -9.98138e-10 -2.90554 0.965183 -0.102902 -2.39531e-09 1.87009e-10 -9.98132e-10 -10.2786 0.731801 -0.0259123 -2.39529e-09 1.87011e-10 -9.98142e-10 -2.22167 -0.733487 0.20892 -2.03217e-16 0.0 -3.88251e-19 -10.3047 -6.6139 13.7574 -0.0119468 7.46335 -0.0609538 -11.7325 -17.4092 -35.8946 2.03217e-16 0.0 3.88251e-19 16.5022 6.91056 -5.50321 0.00334011 -2.137 0.0262224 1.22984 -27.193 1.89851
